# xmcd
#
# Track frame offsets: 
#        150
#        14406
#        27486
#        43618
#        57738
#        72797
#        88264
#        102997
#        115101
#        130307
#        144373
#        157972
#        173151
#        187307
#        201630
#        215708
#        228851
#        241219
#        256450
#        272134
#
# Disc length: 3822 seconds
#
# Revision: 0
# Processed by: cddbd v1.5.2PL0 Copyright (c) Steve Scherf et al.
# Submitted via: ExactAudioCopy v1.3
#
DISCID=320eec14
DTITLE=Tommy Dorsey - The Essential Recordings [CD1]
DYEAR=2018
DGENRE=Big Band
TTITLE0=Frank Sinatra and The Pied Pipers and Tommy Dorsey - I'll Never Sm
TTITLE0=ile Again
TTITLE1=Edythe Wright and Tommy Dorsey - Music, Maestro, Please
TTITLE2=Alone
TTITLE3=Boogie Woogie
TTITLE4=Jack Leonard and Tommy Dorsey - Marie
TTITLE5=Edythe Wright and Tommy Dorsey - On Treasure Island
TTITLE6=Satan Takes a Holiday
TTITLE7=Edythe Wright and Tommy Dorsey - The Big Apple
TTITLE8=Edythe Wright and Tommy Dorsey - The Music Goes 'round and 'roun
TTITLE8=d
TTITLE9=Song of India
TTITLE10=Nola
TTITLE11=Jack Leonard and Tommy Dorsey - In the Still of the Night
TTITLE12=Jack Leonard and Tommy Dorsey - Who?
TTITLE13=Edythe Wright and Tommy Dorsey - The Dipsy Doodle
TTITLE14=Edythe Wright and Tommy Dorsey - Stop Beatin' Round the Mulberr
TTITLE14=y Bush
TTITLE15=Edythe Wright and Tommy Dorsey - Says my Heart
TTITLE16=Jack Leonard and Tommy Dorsey - Our Love
TTITLE17=Jack Leonard and Tommy Dorsey - All the Things you Are
TTITLE18=Jack Leonard and Tommy Dorsey - Indian Summer
TTITLE19=Frank Sinatra and Tommy Dorsey - It's Always You
EXTD=
EXTT0=
EXTT1=
EXTT2=
EXTT3=
EXTT4=
EXTT5=
EXTT6=
EXTT7=
EXTT8=
EXTT9=
EXTT10=
EXTT11=
EXTT12=
EXTT13=
EXTT14=
EXTT15=
EXTT16=
EXTT17=
EXTT18=
EXTT19=
PLAYORDER=
